<svg width="16" height="16" viewBox="0 0 16 16" fill="none" xmlns="http://www.w3.org/2000/svg">
<g clip-path="url(#clip0_1717_839)">
<path d="M15.1969 4.70622C15.1967 4.43792 15.1394 4.20083 15.0233 3.99735C14.9093 3.79726 14.7386 3.62955 14.5096 3.49695C12.6196 2.40712 10.7276 1.32062 8.83816 0.22967C8.32877 -0.0644119 7.83487 -0.0536908 7.32926 0.244613C6.57694 0.688291 2.81037 2.84624 1.68799 3.49634C1.22576 3.76393 1.00083 4.17344 1.00072 4.70572C1 6.89745 1.00072 9.08912 1 11.2809C1.00011 11.5433 1.05505 11.7758 1.16598 11.9762C1.28003 12.1824 1.45312 12.3547 1.68738 12.4903C2.80982 13.1404 6.57689 15.2982 7.32903 15.742C7.83487 16.0404 8.32877 16.0511 8.83833 15.7569C10.7279 14.6659 12.6199 13.5794 14.5103 12.4896C14.7445 12.3541 14.9176 12.1816 15.0317 11.9757C15.1424 11.7752 15.1975 11.5428 15.1976 11.2803C15.1976 11.2803 15.1976 6.898 15.1969 4.70622Z" fill="#5C8DBC"/>
<path d="M8.12054 7.97192L1.16602 11.9762C1.28006 12.1823 1.45315 12.3547 1.68741 12.4902C2.80985 13.1404 6.57692 15.2981 7.32907 15.7419C7.8349 16.0404 8.3288 16.0511 8.83836 15.7569C10.7279 14.6659 12.6199 13.5794 14.5103 12.4896C14.7445 12.354 14.9176 12.1816 15.0317 11.9756L8.12054 7.97192Z" fill="#1A4674"/>
<path d="M6.06055 9.15803C6.46523 9.86451 7.22599 10.341 8.09868 10.341C8.97676 10.341 9.74185 9.85846 10.1445 9.14442L8.1204 7.97192L6.06055 9.15803Z" fill="#1A4674"/>
<path d="M15.197 4.70619C15.1968 4.43788 15.1395 4.20079 15.0234 3.99731L8.12061 7.97192L15.0317 11.9756C15.1425 11.7752 15.1976 11.5427 15.1977 11.2803C15.1977 11.2803 15.1977 6.89797 15.197 4.70619Z" fill="#1B598E"/>
<path d="M14.8168 8.25804H14.2768V8.7982H13.7366V8.25804H13.1966V7.71804H13.7366V7.17798H14.2768V7.71804H14.8168V8.25804ZM12.8462 8.25804H12.3062V8.7982H11.7661V8.25804H11.2261V7.71804H11.7661V7.17798H12.3062V7.71804H12.8462V8.25804Z" fill="white"/>
<path d="M10.1446 9.14448C9.74201 9.85852 8.97692 10.3411 8.09884 10.3411C7.22615 10.3411 6.46539 9.86457 6.06071 9.15809C5.85742 8.80359 5.75065 8.40197 5.75107 7.99332C5.75107 6.69672 6.80225 5.64561 8.09884 5.64561C8.96592 5.64561 9.72268 6.11617 10.1294 6.81543L12.1814 5.63377C11.3658 4.2258 9.843 3.27856 8.09884 3.27856C5.49488 3.27856 3.38403 5.38946 3.38403 7.99332C3.38403 8.84756 3.61129 9.64865 4.00847 10.3396C4.82206 11.755 6.34918 12.7081 8.09884 12.7081C9.85172 12.7081 11.3812 11.7512 12.1937 10.3316L10.1446 9.14448Z" fill="white"/>
</g>
<defs>
<clipPath id="clip0_1717_839">
<rect width="14.2208" height="16" fill="white" transform="translate(1)"/>
</clipPath>
</defs>
</svg>
