<svg width="16" height="16" viewBox="0 0 16 16" fill="none" xmlns="http://www.w3.org/2000/svg">
<g clip-path="url(#clip0_1721_927)">
<path d="M15.1983 4.6918C15.1982 4.42347 15.1408 4.18635 15.0247 3.98285C14.9107 3.78274 14.74 3.61502 14.511 3.48241C12.6207 2.39247 10.7286 1.30585 8.83894 0.214799C8.3295 -0.0793124 7.83556 -0.0685902 7.32989 0.229743C6.5775 0.673465 2.81056 2.83163 1.68806 3.4818C1.22578 3.74941 1.00083 4.15897 1.00072 4.6913C1 6.88324 1.00072 9.07513 1 11.2671C1 11.5296 1.05506 11.7621 1.166 11.9625C1.28006 12.1687 1.45317 12.341 1.68744 12.4766C2.81 13.1268 6.57744 15.2848 7.32967 15.7286C7.83556 16.0271 8.3295 16.0378 8.83911 15.7436C10.7288 14.6525 12.6211 13.5659 14.5116 12.476C14.7459 12.3404 14.919 12.168 15.0331 11.962C15.1438 11.7615 15.199 11.529 15.199 11.2665C15.199 11.2665 15.199 6.8838 15.1983 4.6918Z" fill="#A179DC"/>
<path d="M8.12124 7.95776L1.16602 11.9624C1.28007 12.1686 1.45318 12.3409 1.68746 12.4765C2.81002 13.1267 6.57746 15.2847 7.32968 15.7285C7.83557 16.027 8.32952 16.0377 8.83913 15.7435C10.7288 14.6524 12.6211 13.5658 14.5116 12.4759C14.7459 12.3403 14.919 12.1679 15.0331 11.9619L8.12124 7.95776Z" fill="#280068"/>
<path d="M15.1984 4.69185C15.1983 4.42352 15.1409 4.18641 15.0248 3.98291L8.12134 7.95791L15.0332 11.962C15.1439 11.7616 15.199 11.5291 15.1991 11.2666C15.1991 11.2666 15.1991 6.88385 15.1984 4.69185Z" fill="#390091"/>
<path d="M12.2163 6.46069V7.20923H12.9649V6.46069H13.3391V7.20923H14.0877V7.5835H13.3391V8.33204H14.0877V8.70631H13.3391V9.45485H12.9649V8.70631H12.2163V9.45485H11.842V8.70631H11.0935V8.33204H11.842V7.5835H11.0935V7.20923H11.842V6.46069H12.2163ZM12.9649 7.5835H12.2163V8.33204H12.9649V7.5835Z" fill="white"/>
<path d="M8.13645 2.70142C10.0889 2.70142 11.7935 3.76177 12.7066 5.33786L12.6976 5.32269L10.4005 6.64538C9.94791 5.87906 9.1182 5.36193 8.16643 5.35128L8.13645 5.35111C6.68503 5.35111 5.50834 6.52774 5.50834 7.97916C5.50834 8.45381 5.63488 8.89873 5.85495 9.28302C6.30795 10.0739 7.15955 10.6073 8.13645 10.6073C9.11938 10.6073 9.97583 10.0671 10.4265 9.26779L10.4156 9.28697L12.7093 10.6158C11.8063 12.1785 10.125 13.2356 8.19524 13.2567L8.13645 13.257C6.17786 13.257 4.46838 12.1901 3.55765 10.6057C3.11303 9.83216 2.85864 8.93542 2.85864 7.97916C2.85864 5.06438 5.22155 2.70142 8.13645 2.70142Z" fill="white"/>
</g>
<defs>
<clipPath id="clip0_1721_927">
<rect width="14.2222" height="16" fill="white" transform="translate(1)"/>
</clipPath>
</defs>
</svg>
