<svg width="16" height="16" viewBox="0 0 16 16" fill="none" xmlns="http://www.w3.org/2000/svg">
<path d="M5.80051 12.3738C5.80051 12.3738 5.18909 12.7294 6.23565 12.8497C7.50352 12.9943 8.15152 12.9736 9.54873 12.7092C9.54873 12.7092 9.91607 12.9395 10.4291 13.139C7.29691 14.4814 3.34035 13.0612 5.80051 12.3738ZM5.41778 10.6221C5.41778 10.6221 4.732 11.1297 5.77934 11.238C7.13373 11.3778 8.20332 11.3892 10.0541 11.0328C10.0541 11.0328 10.3102 11.2923 10.7127 11.4342C6.92565 12.5416 2.70762 11.5216 5.41778 10.6221Z" fill="#5382A1"/>
<path d="M8.6444 7.65049C9.41616 8.53904 8.44166 9.33866 8.44166 9.33866C8.44166 9.33866 10.4012 8.32703 9.50129 7.06023C8.66074 5.87882 8.01615 5.29189 11.5057 3.26807C11.5057 3.26802 6.02825 4.63604 8.6444 7.65049Z" fill="#E76F00"/>
<path d="M12.7868 13.6694C12.7868 13.6694 13.2393 14.0422 12.2885 14.3306C10.4806 14.8783 4.76371 15.0437 3.17558 14.3525C2.60469 14.1041 3.67527 13.7594 4.01204 13.6871C4.36325 13.6109 4.56395 13.6251 4.56395 13.6251C3.92906 13.1779 0.460293 14.5033 2.80199 14.8829C9.18813 15.9186 14.4434 14.4166 12.7868 13.6694ZM6.09446 8.80692C6.09446 8.80692 3.18649 9.49761 5.06468 9.74843C5.85771 9.8546 7.43859 9.83058 8.91109 9.7072C10.1145 9.60569 11.323 9.38989 11.323 9.38989C11.323 9.38989 10.8986 9.57162 10.5916 9.7812C7.63864 10.5579 1.93401 10.1965 3.5763 9.40214C4.96519 8.73076 6.09446 8.80692 6.09446 8.80692ZM11.311 11.7228C14.3129 10.1629 12.925 8.66383 11.9562 8.86583C11.7187 8.91525 11.6128 8.95808 11.6128 8.95808C11.6128 8.95808 11.701 8.81999 11.8693 8.76022C13.7858 8.08643 15.2598 10.7475 11.2506 11.8014C11.2506 11.8014 11.2972 11.76 11.311 11.7228Z" fill="#5382A1"/>
<path d="M9.50124 0C9.50124 0 11.1637 1.66299 7.92446 4.22031C5.3269 6.27164 7.33213 7.44128 7.92338 8.77769C6.40718 7.40963 5.29447 6.2054 6.04097 5.08458C7.1366 3.43932 10.172 2.64163 9.50124 0Z" fill="#E76F00"/>
<path d="M6.38953 15.9496C9.27093 16.134 13.6957 15.8472 13.8004 14.4839C13.8004 14.4839 13.599 15.0007 11.4191 15.4112C8.95979 15.874 5.92649 15.82 4.12744 15.5234C4.12753 15.5233 4.49577 15.8281 6.38953 15.9496Z" fill="#5382A1"/>
</svg>
