<svg width="16" height="16" viewBox="0 0 16 16" fill="none" xmlns="http://www.w3.org/2000/svg">
<g id="Icons-2024" clip-path="url(#clip0_1801_13396)">
<path id="Vector" d="M15.8907 7.80393L15.219 7.38812C15.2133 7.32284 15.207 7.25763 15.1999 7.19249L15.7771 6.65406C15.806 6.62724 15.8275 6.59347 15.8396 6.55597C15.8517 6.51847 15.854 6.4785 15.8462 6.43987C15.8386 6.40122 15.8212 6.36515 15.7957 6.33513C15.7702 6.3051 15.7375 6.28212 15.7006 6.26837L14.9626 5.99243C14.9441 5.92871 14.9248 5.86521 14.9048 5.80193L15.3651 5.16262C15.3882 5.13066 15.4027 5.09334 15.4073 5.05419C15.4118 5.01505 15.4063 4.97539 15.3912 4.93898C15.3762 4.90257 15.352 4.87062 15.3211 4.84616C15.2902 4.8217 15.2536 4.80555 15.2147 4.79924L14.4366 4.67268C14.4063 4.61368 14.3748 4.55556 14.3431 4.49793L14.67 3.78024C14.6865 3.74443 14.6934 3.70499 14.6903 3.66571C14.6871 3.62642 14.674 3.5886 14.652 3.55587C14.6302 3.52303 14.6004 3.49635 14.5653 3.47838C14.5302 3.46041 14.4911 3.45175 14.4517 3.45324L13.662 3.48074C13.6212 3.42966 13.5796 3.37921 13.5372 3.32943L13.7188 2.56018C13.7278 2.52182 13.7269 2.48176 13.7161 2.44384C13.7054 2.40592 13.685 2.3714 13.6571 2.34356C13.6293 2.31568 13.5948 2.29539 13.5569 2.28461C13.519 2.27382 13.479 2.2729 13.4406 2.28193L12.6716 2.46324C12.6216 2.42091 12.5711 2.37933 12.5199 2.33849L12.5476 1.54881C12.549 1.50944 12.5404 1.47035 12.5224 1.43528C12.5045 1.4002 12.4779 1.37032 12.4451 1.34849C12.4123 1.32657 12.3745 1.3134 12.3352 1.31022C12.296 1.30705 12.2565 1.31399 12.2207 1.33037L11.5032 1.65749C11.4453 1.62555 11.3871 1.5943 11.3284 1.56374L11.2016 0.785493C11.1952 0.746632 11.179 0.710036 11.1546 0.679174C11.1301 0.648311 11.0982 0.624204 11.0618 0.609138C11.0254 0.594071 10.9858 0.588544 10.9467 0.593079C10.9076 0.597615 10.8703 0.612064 10.8383 0.635056L10.1986 1.09537C10.1356 1.07537 10.0723 1.05606 10.0084 1.03774L9.7325 0.299681C9.71877 0.262706 9.69579 0.229869 9.66576 0.204308C9.63572 0.178747 9.59963 0.161316 9.56094 0.153681C9.52233 0.146084 9.48243 0.148444 9.44499 0.160538C9.40755 0.172632 9.3738 0.194061 9.34694 0.222806L8.8085 0.800493C8.74339 0.793196 8.67817 0.78682 8.61287 0.781368L8.19706 0.109493C8.17634 0.0760141 8.14741 0.0483828 8.11302 0.0292205C8.07862 0.0100582 8.0399 0 8.00053 0C7.96116 0 7.92244 0.0100582 7.88804 0.0292205C7.85365 0.0483828 7.82472 0.0760141 7.804 0.109493L7.38819 0.781368C7.32283 0.786813 7.25755 0.793188 7.19238 0.800493L6.65381 0.222806C6.62697 0.193954 6.59319 0.172451 6.55569 0.160342C6.51819 0.148233 6.47822 0.145922 6.43957 0.153627C6.40093 0.161332 6.3649 0.178798 6.33491 0.204363C6.30492 0.229928 6.28197 0.262742 6.26825 0.299681L5.99237 1.03774C5.92844 1.05606 5.86519 1.07549 5.80206 1.09537L5.16244 0.635056C5.13049 0.611958 5.09314 0.597444 5.05398 0.592903C5.01481 0.588362 4.97514 0.593945 4.93875 0.609118C4.90239 0.624219 4.87049 0.648339 4.84605 0.679201C4.8216 0.710062 4.80543 0.746645 4.79906 0.785493L4.67219 1.56374C4.61344 1.59418 4.55538 1.62549 4.49744 1.65749L3.77988 1.33031C3.74406 1.31391 3.70464 1.30698 3.66538 1.31016C3.62612 1.31335 3.58833 1.32654 3.55562 1.34849C3.52281 1.37031 3.49614 1.40018 3.47817 1.43526C3.4602 1.47033 3.45153 1.50943 3.453 1.54881L3.4805 2.33849C3.42941 2.3794 3.37886 2.42099 3.32888 2.46324L2.55981 2.28199C2.52145 2.273 2.48143 2.27394 2.44352 2.28471C2.40562 2.29548 2.37109 2.31573 2.34319 2.34356C2.31527 2.3714 2.29496 2.40592 2.28417 2.44384C2.27338 2.48176 2.27248 2.52182 2.28156 2.56018L2.46275 3.32943C2.42069 3.37924 2.37912 3.42968 2.33831 3.48074L1.54856 3.45324C1.50923 3.452 1.47023 3.46076 1.43521 3.4787C1.40019 3.49664 1.37029 3.52317 1.34831 3.55581C1.3264 3.58855 1.31322 3.62636 1.31004 3.66563C1.30685 3.7049 1.31377 3.74433 1.33013 3.78018L1.65725 4.49793C1.62544 4.55556 1.594 4.61368 1.5635 4.67268L0.785438 4.79924C0.746556 4.80558 0.709938 4.82175 0.679058 4.84621C0.648178 4.87068 0.62406 4.90262 0.608991 4.93902C0.593921 4.97542 0.588401 5.01507 0.592953 5.0542C0.597505 5.09333 0.611978 5.13065 0.635 5.16262L1.09531 5.80199C1.07531 5.86512 1.05588 5.92849 1.0375 5.99243L0.2995 6.26837C0.262644 6.28221 0.229931 6.30524 0.204456 6.33525C0.178981 6.36527 0.161588 6.4013 0.153922 6.43991C0.146256 6.47853 0.148571 6.51847 0.160648 6.55594C0.172725 6.59341 0.194165 6.62718 0.222938 6.65406L0.80025 7.19243C0.793063 7.25743 0.786688 7.32287 0.781188 7.38812L0.109375 7.80393C0.0759009 7.82465 0.0482805 7.85359 0.0291375 7.88799C0.0099945 7.9224 -3.55297e-05 7.96112 9.45663e-08 8.00049C9.45663e-08 8.08074 0.0414376 8.15506 0.109438 8.19693L0.781188 8.61274C0.786688 8.67818 0.793063 8.74349 0.80025 8.80843L0.222875 9.34699C0.194051 9.37383 0.172566 9.4076 0.16046 9.44508C0.148355 9.48255 0.14603 9.52251 0.153707 9.56114C0.161384 9.59976 0.178808 9.63579 0.204325 9.66579C0.229842 9.6958 0.262604 9.71878 0.2995 9.73256L1.0375 10.0085C1.05588 10.0724 1.07531 10.1358 1.09531 10.1989L0.635 10.8384C0.611935 10.8703 0.597431 10.9077 0.592868 10.9468C0.588305 10.986 0.593835 11.0256 0.608932 11.062C0.624029 11.0984 0.648191 11.1304 0.679119 11.1548C0.710046 11.1792 0.746711 11.1954 0.785625 11.2016L1.56356 11.3282C1.594 11.3872 1.62519 11.4453 1.65731 11.5032L1.33013 12.2207C1.31374 12.2565 1.30681 12.296 1.30999 12.3352C1.31318 12.3745 1.32637 12.4123 1.34831 12.4451C1.37013 12.4779 1.4 12.5045 1.43506 12.5225C1.47012 12.5404 1.5092 12.5491 1.54856 12.5476L2.33794 12.52C2.37913 12.5713 2.42056 12.6216 2.46275 12.6716L2.28156 13.441C2.27249 13.4793 2.27339 13.5193 2.28418 13.5571C2.29497 13.595 2.31529 13.6294 2.34319 13.6572C2.37101 13.6851 2.40554 13.7054 2.44348 13.7162C2.48141 13.727 2.52147 13.7278 2.55981 13.7186L3.32888 13.5375C3.37888 13.58 3.4295 13.6212 3.48056 13.6619L3.45306 14.4518C3.45164 14.4912 3.46032 14.5302 3.47826 14.5653C3.4962 14.6004 3.52281 14.6303 3.55557 14.6521C3.58832 14.674 3.62613 14.6871 3.66539 14.6903C3.70465 14.6934 3.74406 14.6864 3.77988 14.6701L4.49744 14.3431C4.55521 14.3752 4.61347 14.4065 4.67219 14.4368L4.79906 15.2146C4.80533 15.2535 4.82146 15.2902 4.84591 15.3211C4.87036 15.352 4.90233 15.3761 4.93875 15.3912C4.97515 15.4063 5.0148 15.4118 5.05394 15.4073C5.09308 15.4028 5.13043 15.3883 5.16244 15.3654L5.80175 14.9047C5.86488 14.9247 5.92831 14.9443 5.99219 14.9627L6.26813 15.7004C6.28186 15.7374 6.30484 15.7701 6.33487 15.7956C6.3649 15.8212 6.40096 15.8385 6.43962 15.8461C6.47824 15.8539 6.51821 15.8516 6.55569 15.8395C6.59318 15.8274 6.62692 15.8059 6.65369 15.777L7.19225 15.1996C7.25725 15.2071 7.32263 15.2134 7.38806 15.2192L7.80387 15.8909C7.82462 15.9244 7.85354 15.9519 7.88792 15.9711C7.92229 15.9902 7.96097 16.0003 8.00031 16.0003C8.03967 16.0003 8.07838 15.9902 8.11278 15.9711C8.14717 15.952 8.17612 15.9244 8.19687 15.8909L8.61269 15.2192C8.67812 15.2134 8.74344 15.2071 8.80838 15.1996L9.34681 15.777C9.37358 15.8059 9.40732 15.8274 9.44479 15.8395C9.48226 15.8516 9.52221 15.8539 9.56081 15.8461C9.59946 15.8385 9.63552 15.8211 9.66554 15.7956C9.69556 15.7701 9.71855 15.7373 9.73231 15.7004L10.0083 14.9627C10.0721 14.9443 10.1356 14.9247 10.1987 14.9047L10.8382 15.3654C10.8702 15.3884 10.9075 15.4028 10.9466 15.4073C10.9858 15.4118 11.0254 15.4063 11.0618 15.3912C11.0982 15.3761 11.1301 15.3519 11.1546 15.321C11.179 15.2901 11.1951 15.2535 11.2014 15.2146L11.3283 14.4368C11.387 14.4064 11.4451 14.3747 11.503 14.3431L12.2206 14.6701C12.2564 14.6865 12.2958 14.6935 12.3351 14.6904C12.3744 14.6873 12.4122 14.6741 12.445 14.6523C12.4778 14.6304 12.5044 14.6005 12.5223 14.5654C12.5402 14.5303 12.5489 14.4912 12.5474 14.4518L12.5199 13.6619C12.5711 13.6213 12.6216 13.5798 12.6714 13.5375L13.4405 13.7186C13.5186 13.737 13.6005 13.7142 13.6569 13.6572C13.6848 13.6294 13.7052 13.595 13.7159 13.5571C13.7267 13.5193 13.7276 13.4793 13.7186 13.441L13.5374 12.6716C13.5796 12.6216 13.6212 12.5713 13.6618 12.52L14.4516 12.5476C14.4909 12.5491 14.53 12.5405 14.5651 12.5225C14.6001 12.5046 14.63 12.4779 14.6518 12.4451C14.6738 12.4124 14.687 12.3745 14.6902 12.3352C14.6933 12.2959 14.6863 12.2565 14.6699 12.2206L14.3429 11.5032C14.3748 11.4453 14.4062 11.3872 14.4364 11.3282L15.2146 11.2016C15.2535 11.1954 15.2901 11.1792 15.321 11.1548C15.3519 11.1303 15.376 11.0983 15.3909 11.0619C15.406 11.0255 15.4116 10.9859 15.407 10.9467C15.4025 10.9076 15.388 10.8703 15.365 10.8384L14.9047 10.199C14.9246 10.1358 14.944 10.0724 14.9625 10.0085L15.7004 9.73256C15.7373 9.71882 15.7701 9.69583 15.7956 9.66579C15.8211 9.63575 15.8385 9.59967 15.8461 9.56099C15.8538 9.52239 15.8516 9.48243 15.8395 9.44496C15.8274 9.40749 15.8058 9.37375 15.7769 9.34699L15.1997 8.80843C15.2067 8.74343 15.2132 8.67806 15.2188 8.61281L15.8906 8.19693C15.9241 8.17625 15.9517 8.14734 15.9708 8.11295C15.99 8.07857 16 8.03986 16 8.00049C16 7.92043 15.9588 7.84599 15.8907 7.80393ZM11.3949 13.3762C11.1384 13.3209 10.9753 13.0681 11.0304 12.8107C11.0852 12.5537 11.3379 12.3902 11.5943 12.4455C11.8508 12.5004 12.0142 12.7537 11.9592 13.0105C11.9042 13.2674 11.6513 13.4311 11.3949 13.3762ZM11.1667 11.8325C11.111 11.8206 11.0536 11.8197 10.9976 11.83C10.9416 11.8403 10.8882 11.8615 10.8404 11.8925C10.7926 11.9234 10.7514 11.9635 10.7192 12.0104C10.6869 12.0573 10.6642 12.1101 10.6523 12.1657L10.4138 13.2787C9.67788 13.6127 8.86069 13.7982 8 13.7982C7.11963 13.7982 6.28463 13.6035 5.53562 13.2552L5.29725 12.1424C5.24712 11.9082 5.01687 11.759 4.783 11.8092L3.8005 12.0202C3.6179 11.8323 3.44818 11.6323 3.2925 11.4215H8.07312C8.12719 11.4215 8.16325 11.4117 8.16325 11.3624V9.67137C8.16325 9.62218 8.12719 9.61237 8.07306 9.61237H6.675V8.54049H8.18719C8.32519 8.54049 8.92525 8.57987 9.11706 9.34687C9.17719 9.58274 9.30906 10.35 9.39931 10.5956C9.48919 10.8711 9.85512 11.4214 10.2451 11.4214H12.6273C12.6544 11.4214 12.6833 11.4184 12.7137 11.4129C12.5484 11.6373 12.3673 11.8498 12.1719 12.0485L11.1667 11.8325ZM4.55481 13.3529C4.29825 13.4083 4.04569 13.2447 3.9905 12.9877C3.93563 12.7303 4.09875 12.4776 4.35525 12.4223C4.61181 12.3674 4.8645 12.531 4.9195 12.7879C4.97437 13.0448 4.81119 13.2979 4.55481 13.3529ZM2.74125 5.99918C2.84769 6.23931 2.73938 6.52074 2.49956 6.62699C2.25975 6.73356 1.97906 6.62512 1.87269 6.38481C1.76625 6.14449 1.8745 5.86356 2.11438 5.75699C2.17143 5.73169 2.23291 5.71788 2.29531 5.71635C2.3577 5.71483 2.41978 5.72562 2.478 5.74811C2.53623 5.77059 2.58944 5.80434 2.63461 5.84741C2.67978 5.89048 2.71602 5.94209 2.74125 5.99918ZM2.18388 7.32043L3.20738 6.86562C3.31244 6.81888 3.39466 6.73234 3.43596 6.62501C3.47726 6.51769 3.47426 6.39836 3.42762 6.29324L3.21688 5.81662H4.04588V9.55337H2.37331C2.22505 9.03144 2.15004 8.49144 2.15044 7.94887C2.15044 7.73649 2.16188 7.52668 2.18388 7.32043ZM6.67525 6.95749V5.85606H8.64937C8.75138 5.85606 9.36938 5.97393 9.36938 6.43606C9.36938 6.81974 8.89538 6.95731 8.50556 6.95731H6.67525V6.95749ZM13.8497 7.94887C13.8497 8.09499 13.8444 8.23962 13.8337 8.38312H13.2335C13.1734 8.38312 13.1493 8.42262 13.1493 8.48143V8.75706C13.1493 9.40581 12.7834 9.54693 12.4629 9.58287C12.1576 9.61724 11.8191 9.45506 11.7774 9.26824C11.5973 8.25537 11.2972 8.03906 10.8234 7.66524C11.4115 7.29181 12.0234 6.74087 12.0234 6.00337C12.0234 5.20712 11.4775 4.70556 11.1054 4.45962C10.5834 4.11549 10.0054 4.04649 9.84944 4.04649H3.64244C4.48413 3.10712 5.62488 2.44168 6.91506 2.19956L7.64669 2.96706C7.68594 3.00825 7.73293 3.0413 7.78497 3.06432C7.83702 3.08733 7.89309 3.09985 7.94998 3.10116C8.00686 3.10247 8.06345 3.09255 8.1165 3.07196C8.16955 3.05137 8.21802 3.02053 8.25912 2.98118L9.07775 2.19818C10.7931 2.51756 12.2454 3.58531 13.0823 5.05024L12.5219 6.31606C12.4251 6.53512 12.5239 6.79131 12.7423 6.88837L13.8213 7.36762C13.8399 7.55918 13.8497 7.75268 13.8497 7.94887ZM7.647 1.54662C7.83656 1.36506 8.13725 1.37224 8.31875 1.56206C8.49988 1.75243 8.493 2.05343 8.303 2.23487C8.11344 2.41649 7.81275 2.40943 7.63125 2.21924C7.54428 2.12789 7.4971 2.00577 7.50005 1.87967C7.50301 1.75358 7.55585 1.6338 7.647 1.54662ZM13.2084 6.02224C13.2337 5.96516 13.2699 5.91361 13.315 5.87055C13.3602 5.82748 13.4134 5.79375 13.4716 5.77127C13.5298 5.74879 13.5919 5.73801 13.6543 5.73955C13.7167 5.74109 13.7782 5.75492 13.8352 5.78024C14.0751 5.88662 14.1833 6.16793 14.0769 6.40806C14.0517 6.46516 14.0154 6.51674 13.9703 6.55983C13.9251 6.60292 13.8719 6.63668 13.8137 6.65918C13.7554 6.68167 13.6933 6.69246 13.6309 6.69093C13.5685 6.6894 13.5071 6.67557 13.45 6.65024C13.2104 6.54381 13.1022 6.26274 13.2084 6.02224Z" fill="black"/>
</g>
<defs>
<clipPath id="clip0_1801_13396">
<rect width="16" height="16" fill="white"/>
</clipPath>
</defs>
</svg>
